<mxfile host="app.diagrams.net" agent="Mozilla/5.0 (Windows NT 10.0; Win64; x64) AppleWebKit/537.36 (KHTML, like Gecko) Chrome/141.0.0.0 Safari/537.36" version="28.2.7">
  <diagram name="Сторінка-1" id="bGUtK2O2yMtPdo2VGJaq">
    <mxGraphModel dx="1489" dy="803" grid="1" gridSize="10" guides="1" tooltips="1" connect="1" arrows="1" fold="1" page="1" pageScale="1" pageWidth="827" pageHeight="1169" background="#FFCCE6" math="0" shadow="0">
      <root>
        <mxCell id="0" />
        <mxCell id="1" parent="0" />
        <mxCell id="flF6uMh9kXsC-79H569I-4" value="" style="edgeStyle=orthogonalEdgeStyle;rounded=0;orthogonalLoop=1;jettySize=auto;html=1;" edge="1" parent="1" source="flF6uMh9kXsC-79H569I-1" target="flF6uMh9kXsC-79H569I-2">
          <mxGeometry relative="1" as="geometry" />
        </mxCell>
        <mxCell id="flF6uMh9kXsC-79H569I-1" value="" style="ellipse;whiteSpace=wrap;html=1;" vertex="1" parent="1">
          <mxGeometry x="340" y="10" width="120" height="80" as="geometry" />
        </mxCell>
        <mxCell id="flF6uMh9kXsC-79H569I-6" value="" style="edgeStyle=orthogonalEdgeStyle;rounded=0;orthogonalLoop=1;jettySize=auto;html=1;" edge="1" parent="1" source="flF6uMh9kXsC-79H569I-2" target="flF6uMh9kXsC-79H569I-5">
          <mxGeometry relative="1" as="geometry" />
        </mxCell>
        <mxCell id="flF6uMh9kXsC-79H569I-2" value="" style="shape=parallelogram;perimeter=parallelogramPerimeter;whiteSpace=wrap;html=1;fixedSize=1;" vertex="1" parent="1">
          <mxGeometry x="340" y="130" width="120" height="60" as="geometry" />
        </mxCell>
        <mxCell id="flF6uMh9kXsC-79H569I-19" value="" style="edgeStyle=orthogonalEdgeStyle;rounded=0;orthogonalLoop=1;jettySize=auto;html=1;" edge="1" parent="1" source="flF6uMh9kXsC-79H569I-5" target="flF6uMh9kXsC-79H569I-7">
          <mxGeometry relative="1" as="geometry" />
        </mxCell>
        <mxCell id="flF6uMh9kXsC-79H569I-5" value="" style="rounded=0;whiteSpace=wrap;html=1;" vertex="1" parent="1">
          <mxGeometry x="340" y="230" width="120" height="60" as="geometry" />
        </mxCell>
        <mxCell id="flF6uMh9kXsC-79H569I-10" value="" style="edgeStyle=orthogonalEdgeStyle;rounded=0;orthogonalLoop=1;jettySize=auto;html=1;" edge="1" parent="1" source="flF6uMh9kXsC-79H569I-7" target="flF6uMh9kXsC-79H569I-9">
          <mxGeometry relative="1" as="geometry" />
        </mxCell>
        <mxCell id="flF6uMh9kXsC-79H569I-7" value="" style="rounded=0;whiteSpace=wrap;html=1;" vertex="1" parent="1">
          <mxGeometry x="330" y="350" width="140" height="60" as="geometry" />
        </mxCell>
        <mxCell id="flF6uMh9kXsC-79H569I-12" value="" style="edgeStyle=orthogonalEdgeStyle;rounded=0;orthogonalLoop=1;jettySize=auto;html=1;" edge="1" parent="1" source="flF6uMh9kXsC-79H569I-9" target="flF6uMh9kXsC-79H569I-11">
          <mxGeometry relative="1" as="geometry" />
        </mxCell>
        <mxCell id="flF6uMh9kXsC-79H569I-9" value="" style="rhombus;whiteSpace=wrap;html=1;" vertex="1" parent="1">
          <mxGeometry x="360" y="440" width="80" height="80" as="geometry" />
        </mxCell>
        <mxCell id="flF6uMh9kXsC-79H569I-15" value="" style="edgeStyle=orthogonalEdgeStyle;rounded=0;orthogonalLoop=1;jettySize=auto;html=1;" edge="1" parent="1" source="flF6uMh9kXsC-79H569I-11" target="flF6uMh9kXsC-79H569I-13">
          <mxGeometry relative="1" as="geometry" />
        </mxCell>
        <mxCell id="flF6uMh9kXsC-79H569I-11" value="" style="shape=parallelogram;perimeter=parallelogramPerimeter;whiteSpace=wrap;html=1;fixedSize=1;" vertex="1" parent="1">
          <mxGeometry x="340" y="560" width="120" height="60" as="geometry" />
        </mxCell>
        <mxCell id="flF6uMh9kXsC-79H569I-13" value="" style="ellipse;whiteSpace=wrap;html=1;" vertex="1" parent="1">
          <mxGeometry x="340" y="660" width="120" height="80" as="geometry" />
        </mxCell>
        <mxCell id="flF6uMh9kXsC-79H569I-18" style="edgeStyle=orthogonalEdgeStyle;rounded=0;orthogonalLoop=1;jettySize=auto;html=1;exitX=0.5;exitY=0;exitDx=0;exitDy=0;" edge="1" parent="1" source="flF6uMh9kXsC-79H569I-16">
          <mxGeometry relative="1" as="geometry">
            <mxPoint x="400" y="320" as="targetPoint" />
            <Array as="points">
              <mxPoint x="260" y="320" />
            </Array>
          </mxGeometry>
        </mxCell>
        <mxCell id="flF6uMh9kXsC-79H569I-16" value="" style="rounded=0;whiteSpace=wrap;html=1;" vertex="1" parent="1">
          <mxGeometry x="200" y="450" width="120" height="60" as="geometry" />
        </mxCell>
        <mxCell id="flF6uMh9kXsC-79H569I-20" value="&lt;b&gt;START&lt;/b&gt;" style="text;html=1;whiteSpace=wrap;strokeColor=none;fillColor=none;align=center;verticalAlign=middle;rounded=0;" vertex="1" parent="1">
          <mxGeometry x="370" y="35" width="60" height="30" as="geometry" />
        </mxCell>
        <mxCell id="flF6uMh9kXsC-79H569I-21" value="&lt;b&gt;Vstup n&lt;/b&gt;" style="text;html=1;whiteSpace=wrap;strokeColor=none;fillColor=none;align=center;verticalAlign=middle;rounded=0;" vertex="1" parent="1">
          <mxGeometry x="370" y="145" width="60" height="30" as="geometry" />
        </mxCell>
        <mxCell id="flF6uMh9kXsC-79H569I-22" value="&lt;b&gt;i = 1; Factorial = 1&lt;/b&gt;" style="text;html=1;whiteSpace=wrap;strokeColor=none;fillColor=none;align=center;verticalAlign=middle;rounded=0;" vertex="1" parent="1">
          <mxGeometry x="345" y="245" width="110" height="30" as="geometry" />
        </mxCell>
        <mxCell id="flF6uMh9kXsC-79H569I-23" value="&lt;b&gt;Factorial = Factorial * i&lt;/b&gt;" style="text;html=1;whiteSpace=wrap;strokeColor=none;fillColor=none;align=center;verticalAlign=middle;rounded=0;" vertex="1" parent="1">
          <mxGeometry x="332.5" y="365" width="135" height="30" as="geometry" />
        </mxCell>
        <mxCell id="flF6uMh9kXsC-79H569I-59" value="" style="edgeStyle=orthogonalEdgeStyle;rounded=0;orthogonalLoop=1;jettySize=auto;html=1;" edge="1" parent="1">
          <mxGeometry relative="1" as="geometry">
            <mxPoint x="360" y="480" as="sourcePoint" />
            <mxPoint x="320" y="480" as="targetPoint" />
          </mxGeometry>
        </mxCell>
        <mxCell id="flF6uMh9kXsC-79H569I-24" value="&lt;b&gt;i&amp;lt;n&lt;/b&gt;" style="text;html=1;whiteSpace=wrap;strokeColor=none;fillColor=none;align=center;verticalAlign=middle;rounded=0;" vertex="1" parent="1">
          <mxGeometry x="370" y="465" width="60" height="30" as="geometry" />
        </mxCell>
        <mxCell id="flF6uMh9kXsC-79H569I-25" value="&lt;b&gt;Vystup Factorial&lt;/b&gt;" style="text;html=1;whiteSpace=wrap;strokeColor=none;fillColor=none;align=center;verticalAlign=middle;rounded=0;" vertex="1" parent="1">
          <mxGeometry x="370" y="575" width="60" height="30" as="geometry" />
        </mxCell>
        <mxCell id="flF6uMh9kXsC-79H569I-26" value="&lt;b&gt;STOP&lt;/b&gt;" style="text;html=1;whiteSpace=wrap;strokeColor=none;fillColor=none;align=center;verticalAlign=middle;rounded=0;" vertex="1" parent="1">
          <mxGeometry x="370" y="685" width="60" height="30" as="geometry" />
        </mxCell>
        <mxCell id="flF6uMh9kXsC-79H569I-27" value="&lt;b&gt;i = i + 1&lt;/b&gt;" style="text;html=1;whiteSpace=wrap;strokeColor=none;fillColor=none;align=center;verticalAlign=middle;rounded=0;" vertex="1" parent="1">
          <mxGeometry x="230" y="465" width="60" height="30" as="geometry" />
        </mxCell>
        <mxCell id="flF6uMh9kXsC-79H569I-55" value="" style="shape=cross;whiteSpace=wrap;html=1;" vertex="1" parent="1">
          <mxGeometry x="345" y="455" width="10" height="10" as="geometry" />
        </mxCell>
        <mxCell id="flF6uMh9kXsC-79H569I-60" value="" style="endArrow=none;html=1;rounded=0;" edge="1" parent="1">
          <mxGeometry width="50" height="50" relative="1" as="geometry">
            <mxPoint x="410" y="530" as="sourcePoint" />
            <mxPoint x="420" y="530" as="targetPoint" />
          </mxGeometry>
        </mxCell>
      </root>
    </mxGraphModel>
  </diagram>
</mxfile>
